<?xml version="1.0" standalone="no"?>
<!DOCTYPE svg PUBLIC "-//W3C//DTD SVG 20010904//EN"
 "http://www.w3.org/TR/2001/REC-SVG-20010904/DTD/svg10.dtd">
<svg version="1.0" xmlns="http://www.w3.org/2000/svg"
 width="1170.000000pt" height="1202.000000pt" viewBox="0 0 1170.000000 1202.000000"
 preserveAspectRatio="xMidYMid meet">

<g transform="translate(0.000000,1202.000000) scale(0.100000,-0.100000)"
fill="#990000" stroke="none" fill-opacity="0.6">
<path d="M5600 11954 c-543 -35 -880 -89 -1318 -210 -1584 -438 -2919 -1539
-3660 -3019 -327 -654 -521 -1345 -594 -2120 -17 -184 -17 -805 0 -980 97
-976 373 -1805 862 -2595 818 -1317 2160 -2273 3666 -2609 490 -109 877 -147
1403 -138 326 5 472 17 756 58 2136 312 3950 1817 4655 3864 458 1329 424
2770 -94 4080 -83 209 -287 623 -396 805 -254 422 -513 759 -845 1099 -989
1014 -2249 1614 -3665 1746 -156 15 -651 27 -770 19z m605 -204 c1218 -80
2332 -526 3280 -1316 168 -140 531 -502 675 -674 743 -884 1176 -1905 1306
-3075 21 -195 30 -727 15 -940 -35 -499 -124 -950 -276 -1410 -510 -1541
-1684 -2804 -3188 -3429 -1382 -574 -2951 -575 -4334 0 -1629 676 -2865 2101
-3296 3799 -77 301 -117 522 -152 845 -22 198 -31 727 -16 945 85 1212 539
2335 1321 3265 145 172 507 534 675 674 941 783 2043 1229 3255 1315 166 12
561 12 735 1z"/>
<path d="M5520 9614 c-118 -63 -532 -282 -920 -486 -388 -204 -709 -374 -714
-379 -4 -4 10 -17 33 -29 23 -11 47 -31 53 -44 5 -13 22 -30 37 -37 14 -8 28
-16 31 -19 3 -3 25 -16 50 -29 25 -13 144 -76 265 -141 121 -65 283 -147 360
-182 161 -73 635 -307 871 -430 l161 -84 154 76 c600 293 873 420 908 420 l21
0 0 -342 c0 -189 5 -377 10 -418 20 -157 85 -261 200 -319 82 -40 132 -48 164
-24 24 17 25 23 26 114 l0 97 -41 10 c-58 15 -106 51 -129 98 -19 38 -20 62
-20 475 l0 435 68 40 c37 22 134 78 216 125 83 46 166 100 185 120 20 19 53
46 74 58 21 13 35 27 30 31 -4 4 -199 108 -433 230 -234 123 -649 342 -923
487 -274 144 -504 263 -510 262 -7 0 -109 -52 -227 -115z"/>
<path d="M4862 7713 c3 -237 3 -238 31 -298 50 -106 98 -141 319 -230 106 -43
271 -111 365 -151 l173 -73 343 169 c364 180 451 234 509 317 l33 48 3 229 c2
185 1 227 -10 223 -7 -3 -208 -100 -447 -216 l-434 -210 -116 58 c-64 32 -136
68 -161 79 -25 11 -171 81 -324 156 -153 75 -281 136 -283 136 -2 0 -3 -107
-1 -237z"/>
<path d="M10825 6431 c-45 -27 -67 -67 -67 -121 0 -62 24 -105 72 -130 67 -34
133 -20 183 39 21 26 27 43 27 82 0 28 -7 63 -15 79 -33 64 -136 91 -200 51z
m121 -21 c82 -40 94 -135 23 -194 -73 -61 -189 -2 -189 96 0 35 33 82 71 101
43 21 44 21 95 -3z"/>
<path d="M10840 6310 c0 -73 2 -80 20 -80 15 0 20 7 20 26 0 33 33 30 38 -4 2
-15 10 -22 27 -22 21 0 22 3 15 36 -5 23 -4 46 3 61 10 22 8 28 -12 44 -15 12
-39 19 -67 19 l-44 0 0 -80z m75 25 c0 -11 -8 -21 -17 -23 -14 -3 -18 3 -18
23 0 20 4 26 18 23 9 -2 17 -12 17 -23z"/>
<path d="M920 5500 l0 -630 125 0 125 0 0 630 0 630 -125 0 -125 0 0 -630z"/>
<path d="M1425 5873 c56 -142 169 -426 250 -631 l147 -373 126 3 127 3 249
623 c137 342 252 622 255 622 3 0 111 -192 239 -426 l232 -425 0 -200 0 -199
120 0 120 0 0 206 0 207 211 391 c116 215 220 406 231 424 l20 32 -126 0 -125
0 -156 -274 c-86 -151 -162 -282 -169 -291 -10 -14 -37 27 -180 274 l-169 291
-251 0 -251 0 -185 -490 c-161 -427 -186 -487 -195 -468 -6 13 -90 233 -186
491 l-174 467 -131 0 -132 0 103 -257z"/>
<path d="M4440 5500 l0 -630 125 0 125 0 0 185 0 185 164 0 163 0 108 -185
107 -185 140 0 c109 0 138 3 132 13 -4 6 -65 99 -136 204 -70 106 -128 195
-128 197 0 2 17 14 38 27 95 57 165 154 192 268 20 87 9 234 -24 306 -55 121
-139 189 -280 225 -71 18 -111 20 -403 20 l-323 0 0 -630z m700 385 c45 -25
60 -40 83 -84 35 -71 37 -145 3 -217 -48 -102 -110 -124 -358 -124 l-178 0 0
231 0 231 198 -4 197 -3 55 -30z"/>
<path d="M5740 5500 l0 -630 475 0 475 0 0 105 0 105 -350 0 -350 0 0 160 0
160 305 0 305 0 0 105 0 105 -305 0 -305 0 0 155 0 155 340 0 340 0 0 105 0
105 -465 0 -465 0 0 -630z"/>
<path d="M7321 6113 c-15 -29 -541 -1232 -541 -1238 0 -3 56 -5 125 -5 121 0
126 1 134 23 5 12 30 73 56 135 l47 112 307 0 306 0 55 -135 55 -135 132 0
132 0 -33 78 c-19 42 -129 298 -246 567 -117 270 -224 518 -239 552 l-26 63
-127 0 c-111 0 -128 -2 -137 -17z m238 -504 c57 -137 101 -252 99 -255 -3 -2
-100 -3 -216 -2 l-210 3 106 253 c59 138 109 252 112 252 3 0 52 -113 109
-251z"/>
<path d="M8270 5500 l0 -630 283 0 c297 0 372 7 477 39 285 89 458 368 420
677 -33 267 -203 457 -468 525 -66 17 -112 19 -394 19 l-318 0 0 -630z m635
404 c157 -40 268 -166 297 -334 32 -184 -64 -370 -230 -448 -55 -26 -65 -27
-254 -30 l-198 -4 0 416 0 416 163 0 c115 0 180 -5 222 -16z"/>
<path d="M9526 6098 c9 -18 115 -212 235 -431 l219 -398 0 -200 0 -199 120 0
120 0 0 206 0 207 211 391 c116 215 220 406 231 424 l20 32 -126 0 -125 0
-156 -274 c-86 -151 -162 -282 -169 -291 -10 -14 -37 27 -180 274 l-169 291
-124 0 -124 0 17 -32z"/>
<path d="M2430 3809 c-76 -15 -164 -65 -219 -124 -68 -75 -94 -145 -94 -255 0
-180 92 -311 260 -370 53 -19 79 -22 157 -18 79 3 102 8 157 35 35 18 80 45
99 62 l35 30 -47 47 -46 47 -30 -22 c-81 -57 -175 -75 -263 -51 -49 14 -122
80 -148 133 -27 56 -28 155 -2 212 39 86 133 147 226 148 65 1 115 -17 172
-60 l47 -36 33 39 c58 68 59 70 11 105 -102 75 -224 102 -348 78z"/>
<path d="M3182 3810 c-116 -25 -228 -107 -274 -202 -100 -204 -22 -436 180
-531 64 -30 73 -32 187 -32 115 0 123 1 186 32 122 60 200 164 217 290 33 241
-133 437 -378 449 -41 2 -94 -1 -118 -6z m179 -142 c55 -16 118 -73 145 -132
65 -139 -3 -301 -146 -351 -119 -42 -258 15 -315 128 -48 98 -27 225 52 299
64 61 172 84 264 56z"/>
<path d="M4829 3806 c-144 -39 -215 -166 -161 -289 29 -64 81 -98 221 -143
141 -44 174 -68 169 -121 -5 -55 -43 -78 -126 -77 -79 2 -132 20 -208 70 -30
20 -56 35 -58 33 -16 -18 -56 -114 -52 -125 8 -21 104 -72 179 -95 99 -31 230
-24 311 15 127 62 163 220 74 322 -38 43 -79 65 -178 94 -111 34 -159 59 -176
92 -55 106 126 134 298 47 20 -10 39 -16 41 -11 3 4 17 33 31 65 l25 58 -62
29 c-104 49 -230 63 -328 36z"/>
<path d="M8889 3802 c-36 -9 -88 -32 -117 -51 -257 -164 -231 -544 46 -674 57
-27 81 -32 163 -35 110 -5 177 10 272 60 l57 31 0 148 0 149 -65 0 -65 0 0
-106 0 -105 -46 -20 c-187 -83 -384 35 -384 229 0 224 253 332 450 192 l29
-21 41 52 c22 28 40 54 40 58 0 12 -107 72 -157 87 -79 24 -189 27 -264 6z"/>
<path d="M3810 3425 l0 -385 75 0 75 0 0 261 0 261 198 -261 197 -261 68 0 67
0 0 385 0 385 -70 0 -70 0 -2 -257 -3 -256 -193 256 -192 257 -75 0 -75 0 0
-385z"/>
<path d="M5352 3538 c3 -260 4 -275 26 -324 52 -114 142 -166 297 -172 85 -3
109 -1 159 18 75 28 137 85 167 153 23 50 24 63 27 325 l3 272 -75 0 -76 0 0
-247 c0 -221 -3 -253 -19 -289 -27 -59 -77 -94 -144 -101 -91 -9 -160 25 -197
98 -18 35 -20 59 -20 289 l0 250 -76 0 -75 0 3 -272z"/>
<path d="M6200 3425 l0 -385 240 0 240 0 0 70 0 70 -165 0 -165 0 0 315 0 315
-75 0 -75 0 0 -385z"/>
<path d="M6720 3745 l0 -65 120 0 120 0 0 -320 0 -320 75 0 75 0 0 320 0 320
120 0 120 0 0 65 0 65 -315 0 -315 0 0 -65z"/>
<path d="M7450 3425 l0 -385 75 0 75 0 0 385 0 385 -75 0 -75 0 0 -385z"/>
<path d="M7780 3425 l0 -385 75 0 75 0 0 261 0 261 198 -261 197 -261 68 0 67
0 0 385 0 385 -70 0 -70 0 -2 -257 -3 -256 -193 256 -192 257 -75 0 -75 0 0
-385z"/>
</g>
</svg>
